<?xml version="1.0" standalone="no"?><!DOCTYPE svg PUBLIC "-//W3C//DTD SVG 1.1//EN" "http://www.w3.org/Graphics/SVG/1.1/DTD/svg11.dtd"><svg t="1728152393559" class="icon" viewBox="0 0 1024 1024" version="1.1" xmlns="http://www.w3.org/2000/svg" p-id="4246" xmlns:xlink="http://www.w3.org/1999/xlink" width="200" height="200"><path d="M903.52128 420.867413c-16.683236-37.05344-38.616747-71.555413-65.193529-102.543929a17.614507 17.614507 0 0 0-0.930702-1.005226L527.154062 7.070151a17.880178 17.880178 0 0 0-25.28256 0L191.641031 317.305742c-0.324267 0.324267-0.633742 0.658204-0.930133 1.005227-26.586453 30.998187-48.525084 65.50528-65.203769 102.556444-24.823467 55.131591-37.410133 113.968356-37.410133 174.882703 0 235.126898 191.289458 426.416356 426.416355 426.416355 235.126329 0 426.416356-191.289458 426.416356-426.416355-0.000569-60.914347-12.587236-119.75168-37.408427-174.882703z m-389.008498 565.547236c-215.412622 0-390.664533-175.251911-390.664533-390.664533 0-55.819378 11.526827-109.718756 34.25792-160.203663 15.187627-33.736818 35.13856-65.173618 59.303253-93.449102L514.512782 44.990009l297.115876 297.119289c24.155022 28.265244 44.103111 59.699769 59.293582 93.436586 22.731093 50.482631 34.255076 104.384284 34.255076 160.203663 0 215.413191-175.251911 390.665102-390.664534 390.665102z" fill="#1296db" p-id="4247"></path><path d="M796.577564 627.593671c-9.872498 0-17.875627 8.00256-17.875626 17.876196 0 75.737884-82.765369 223.147804-234.48576 223.147804-9.872498 0-17.875627 8.003129-17.875627 17.876196 0 9.873067 8.00256 17.876196 17.875627 17.876195 77.099804 0 148.600604-34.093511 201.327502-96 41.86112-49.150862 68.909511-113.093404 68.909511-162.900195 0.000569-9.873067-8.001991-17.876196-17.875627-17.876196z" fill="#1296db" p-id="4248"></path></svg>